<svg width="100" height="100" viewBox="0 0 100 100" fill="none" xmlns="http://www.w3.org/2000/svg">
  <defs>
    <linearGradient id="gradient" x1="0%" y1="0%" x2="100%" y2="100%">
      <stop offset="0%" style="stop-color:#3B82F6;stop-opacity:1" />
      <stop offset="100%" style="stop-color:#8B5CF6;stop-opacity:1" />
    </linearGradient>
  </defs>
  
  <!-- Background Circle -->
  <rect width="100" height="100" rx="20" fill="url(#gradient)"/>
  
  <!-- Speech Bubble -->
  <path d="M20 30 L20 70 C20 75 25 80 30 80 L50 80 L60 90 L70 80 L80 80 C85 80 90 75 90 70 L90 30 C90 25 85 20 80 20 L30 20 C25 20 20 25 20 30 Z" 
        fill="white" 
        opacity="0.9"/>
  
  <!-- Chat Dots -->
  <circle cx="35" cy="45" r="6" fill="#3B82F6"/>
  <circle cx="50" cy="45" r="6" fill="#8B5CF6"/>
  <circle cx="65" cy="45" r="6" fill="#3B82F6"/>
  
  <!-- AI Sparkle -->
  <path d="M75 65 L77 70 L82 70 L78 73 L80 78 L75 75 L70 78 L72 73 L68 70 L73 70 Z" 
        fill="#F59E0B" 
        opacity="0.8"/>
</svg>